<?xml version="1.0" standalone="no"?><!-- Generator: Gravit.io --><svg xmlns="http://www.w3.org/2000/svg" xmlns:xlink="http://www.w3.org/1999/xlink" style="isolation:isolate" viewBox="0 0 477.084 75" width="477.084" height="75"><defs><clipPath id="_clipPath_RgNjTDZousodCSYi4g3jp1dM7DJiziRL"><rect width="477.084" height="75"/></clipPath></defs><g clip-path="url(#_clipPath_RgNjTDZousodCSYi4g3jp1dM7DJiziRL)"><clipPath id="_clipPath_1U61hoPBoILg5ZpJUYkTZvUhDcasNb5F"><path d=" M 0 0 L 477.084 0 L 477.084 75 L 0 75 L 0 0 Z " fill="rgb(255,255,255)"/></clipPath><g clip-path="url(#_clipPath_1U61hoPBoILg5ZpJUYkTZvUhDcasNb5F)"><path d=" M 467.034 66.885 C 469.809 66.885 472.093 64.603 472.093 61.768 C 472.093 59.117 469.872 56.776 467.034 56.776 C 464.323 56.776 461.981 58.992 461.981 61.768 C 461.981 64.603 464.323 66.885 467.034 66.885 Z  M 467.034 65.958 C 464.694 65.958 462.843 64.052 462.843 61.706 C 462.843 59.424 464.694 57.575 467.034 57.575 C 469.44 57.575 471.35 59.424 471.35 61.706 C 471.35 64.052 469.44 65.958 467.034 65.958 Z  M 464.94 64.541 L 466.05 64.541 L 466.05 62.323 L 467.221 62.323 C 467.774 62.323 468.206 62.693 468.206 63.615 C 468.206 64.296 468.27 64.358 468.391 64.541 L 469.44 64.541 C 469.38 64.052 469.44 63.37 469.38 62.877 C 469.13 62.26 468.764 61.953 468.452 61.827 C 469.069 61.706 469.44 61.151 469.44 60.473 C 469.44 59.486 468.823 58.869 467.839 58.869 L 464.94 58.869 L 464.94 64.541 Z  M 466.05 61.398 L 466.05 59.794 L 467.526 59.794 C 467.958 59.794 468.391 60.162 468.391 60.656 C 468.391 61.09 467.899 61.46 467.591 61.398 L 466.05 61.398 Z " fill="rgb(0,46,151)"/><path d=" M 155.627 66.785 C 161.669 66.785 167.032 63.21 170.361 58.402 C 173.197 54.334 174.739 49.093 174.431 44.161 C 174.061 38.55 170.546 33.742 163.642 33.619 L 142.804 33.248 C 138.92 33.248 138.427 27.392 140.337 24.062 C 141.57 21.904 143.604 19.254 146.564 19.315 L 192.433 19.376 L 181.397 66.972 L 193.481 66.972 L 204.517 19.563 L 223.259 19.563 L 225.479 9.884 L 143.481 10.006 C 139.597 10.006 135.837 11.671 132.692 14.198 C 129.547 16.724 127.267 20.118 125.911 23.755 C 124.124 28.747 123.569 34.852 126.651 39.105 C 129.056 42.311 133.308 43.115 137.316 43.668 L 155.195 43.728 C 157.415 43.728 159.017 46.07 159.201 48.106 C 159.45 50.389 158.587 53.097 156.737 54.705 C 155.749 55.565 153.776 56.799 152.237 56.86 L 121.842 56.86 L 119.377 66.972 L 155.627 66.785 Z  M 27.761 43.115 L 61.732 43.115 L 64.013 33.248 L 30.104 33.248 C 30.72 29.982 32.016 26.775 34.235 24.309 C 36.824 21.474 40.461 19.871 44.223 19.376 L 67.157 19.376 L 69.377 9.884 L 45.518 9.82 C 42.065 9.82 38.674 10.683 35.405 11.794 C 32.632 12.843 30.104 14.198 27.884 15.986 C 25.665 17.589 23.877 19.625 22.46 21.845 C 20.178 25.358 18.821 29.428 17.466 33.496 L 9.575 66.972 L 22.213 66.972 L 27.761 43.115 Z  M 94.036 23.694 L 96.997 43.605 L 82.015 43.605 L 94.036 23.694 Z  M 98.475 53.408 L 100.634 66.972 L 114.383 66.972 L 103.53 9.884 L 90.461 9.884 L 53.47 66.972 L 67.464 66.972 L 75.973 53.408 L 98.475 53.408 Z " fill="rgb(200,18,41)"/><path d=" M 370.605 24.679 L 385.095 66.973 L 399.395 66.973 L 412.588 9.885 L 400.321 9.885 L 391.383 52.236 L 377.571 9.885 L 362.468 9.885 L 349.395 66.973 L 361.914 66.973 L 370.605 24.679 Z " fill="rgb(0,46,151)"/><path d=" M 444.341 66.785 C 450.32 66.785 455.685 63.21 459.138 58.402 C 461.974 54.334 463.515 49.218 463.083 44.161 C 462.712 38.55 458.583 33.742 452.232 33.619 L 431.456 33.248 C 427.571 33.248 427.202 27.269 429.052 24.062 C 430.347 21.904 432.874 19.931 435.032 19.931 L 466.165 19.871 L 468.446 9.884 L 432.196 10.006 C 428.187 10.006 424.489 11.671 421.468 14.198 C 418.14 16.724 415.923 20.118 414.564 23.755 C 412.714 28.747 412.343 34.852 415.427 39.105 C 417.708 42.311 421.345 43.605 425.968 43.668 L 443.972 43.728 C 446.128 43.728 447.794 46.07 447.915 48.106 C 448.101 49.65 447.73 51.25 447.052 52.545 C 446.007 54.517 444.034 56.799 441.814 56.86 L 410.495 56.86 L 407.966 66.972 L 444.341 66.785 Z " fill="rgb(0,46,151)"/><path d=" M 256.61 66.785 C 262.653 66.785 268.016 63.21 271.407 58.402 C 274.243 54.334 275.723 49.218 275.354 44.161 C 274.985 38.55 270.854 33.742 264.565 33.619 L 243.727 33.248 C 239.844 33.248 239.473 27.269 241.26 24.062 C 242.616 21.904 245.02 19.931 247.241 19.931 L 278.434 19.871 L 280.717 9.884 L 244.405 10.006 C 240.458 10.006 236.883 11.671 233.86 14.198 C 230.532 16.724 228.313 20.118 226.957 23.755 C 225.108 28.747 224.738 34.852 227.82 39.105 C 230.102 42.311 233.8 43.605 238.362 43.668 L 256.241 43.728 C 258.339 43.728 260.063 46.07 260.188 48.106 C 260.372 49.65 260.003 51.25 259.262 52.545 C 258.214 54.517 256.301 56.799 254.083 56.86 L 222.888 56.86 L 220.361 66.972 L 256.61 66.785 Z " fill="rgb(0,46,151)"/><path d=" M 337.376 43.357 L 334.229 56.798 L 319.311 56.614 C 318.263 56.614 317.155 56.427 316.169 56.059 C 315.179 55.689 314.194 55.255 313.394 54.517 C 311.976 53.162 311.298 51.128 311.05 49.093 C 310.495 45.764 311.05 42.373 311.79 38.981 C 312.653 34.235 314.134 29.428 317.093 25.665 C 319.743 22.397 323.997 20.612 328.188 20.177 L 354.823 20.177 L 357.228 9.884 L 326.956 9.819 C 324.183 9.819 321.468 10.683 318.88 11.671 C 316.536 12.657 314.257 13.768 312.345 15.185 C 310.247 16.663 308.522 18.328 306.981 20.24 C 305.378 22.152 304.085 24.123 302.851 26.282 C 300.63 30.598 299.274 35.097 298.226 39.846 C 297.794 42.067 297.425 44.284 297.364 46.503 C 297.179 49.711 297.487 52.914 298.349 55.995 C 298.657 56.921 298.966 57.847 299.399 58.773 C 302.233 64.38 309.075 66.418 315.241 66.911 L 344.22 66.972 L 351.925 33.803 L 323.505 33.248 L 321.224 43.357 L 337.376 43.357 Z " fill="rgb(0,46,151)"/><path d=" M 300.63 9.884 L 288.857 9.884 L 275.663 66.972 L 287.562 66.972 L 300.63 9.884 Z " fill="rgb(0,46,151)"/></g></g></svg>