<svg width="250" height="52" viewBox="0 0 250 52" fill="none" xmlns="http://www.w3.org/2000/svg">
<path d="M238.905 33.0202C241.196 33.0202 242.579 31.2602 242.579 29.0005C242.579 26.7408 241.196 24.9808 238.905 24.9808C236.732 24.9808 235.232 26.6659 235.232 29.0005C235.232 31.3352 236.732 33.0202 238.905 33.0202ZM242.261 22.5684V19.7341H250.001V37.1565C250.001 40.7931 248.46 43.4359 245.972 45.0433C244.117 46.2675 241.508 46.6894 238.745 46.6894C235.784 46.6894 233.531 46.3841 231.518 45.3098C229.308 44.1605 227.647 41.9785 227.647 39.9104H235.467C235.664 40.9819 236.729 41.5954 238.625 41.5954C240.718 41.5954 242.258 40.7543 242.258 38.1504V35.1633C241.428 37.0399 238.903 38.3419 236.217 38.3419C230.688 38.3419 227.212 34.436 227.212 28.8839C227.212 23.3319 230.805 19.1956 236.257 19.1956C239.02 19.1956 241.431 20.5364 242.258 22.5657L242.261 22.5684ZM211.953 38.7639H204.214V19.7341H211.953V22.5296C212.981 20.3476 215.192 19.1983 218.313 19.1983C223.132 19.1983 225.499 21.8411 225.499 27.1628V38.7639H217.6V29.0755C217.6 26.6242 216.769 25.475 214.874 25.475C212.978 25.475 211.95 26.6992 211.95 29.2282V38.7611L211.953 38.7639ZM191.086 33.098C193.376 33.098 194.759 31.5656 194.759 29.2309C194.759 26.8963 193.376 25.3639 191.086 25.3639C188.795 25.3639 187.412 26.8963 187.412 29.2309C187.412 31.5656 188.835 33.098 191.086 33.098ZM191.086 39.2996C184.134 39.2996 179.673 35.2411 179.673 29.2309C179.673 23.2208 184.137 19.1983 191.086 19.1983C198.035 19.1983 202.539 23.218 202.539 29.2309C202.539 35.2438 198.075 39.2996 191.086 39.2996ZM172.208 38.7639H164.469V19.7341H172.208V23.9842C172.918 21.0361 175.169 19.351 177.854 19.351C178.524 19.351 178.842 19.3899 179.315 19.4648V26.5493C178.565 26.4355 178.129 26.3966 177.339 26.3966C173.863 26.3966 172.205 28.2732 172.205 32.3706V38.7639H172.208ZM160.64 33.2118C161.273 33.2118 161.983 33.1341 162.616 33.0591V38.7639C161.511 38.9554 159.97 39.147 157.797 39.147C154.204 39.147 150.215 38.1892 150.215 31.9098V25.4777H147.332V19.7341H150.215V14.182H157.955V19.7341H162.419V25.4777H157.955V30.3414C157.955 32.7537 159.257 33.2118 160.64 33.2118ZM135.947 39.6078C128.721 39.6078 124.337 36.0073 124.337 29.9971H132.552C132.552 32.2957 133.854 33.7115 136.068 33.7115C137.846 33.7115 138.831 32.9064 138.831 31.4906C138.831 30.2664 138.081 29.614 136.225 28.9256L130.736 26.974C126.788 25.5582 124.812 22.9932 124.812 19.3927C124.812 14.4152 128.918 11.1228 135.633 11.1228C142.347 11.1228 146.731 14.3764 146.731 19.7008H138.516C138.516 17.7104 137.451 16.5611 135.555 16.5611C134.015 16.5611 133.067 17.3273 133.067 18.5904C133.067 19.6619 133.817 20.3504 136.108 21.1943L141.161 23.0709C145.308 24.6421 147.046 27.2072 147.046 30.805C147.046 36.2432 142.742 39.6105 135.947 39.6105V39.6078ZM111.489 33.2506C113.82 33.2506 115.203 31.5267 115.203 29.2698C115.203 27.0129 113.82 25.2501 111.489 25.2501C109.159 25.2501 107.856 26.9352 107.856 29.2698C107.856 31.6045 109.279 33.2506 111.489 33.2506ZM114.888 22.5684V11.9612H122.627V38.7639H114.888V35.9295C113.98 37.8811 111.69 39.2996 108.726 39.2996C103.237 39.2996 99.8415 35.0884 99.8415 29.267C99.8415 23.4457 103.358 19.1983 108.766 19.1983C111.807 19.1983 113.94 20.6141 114.888 22.5684ZM97.9603 38.7639H90.2208V19.7341H97.9603V38.7639ZM94.0891 19.0845C91.6009 19.0845 89.7856 17.2079 89.7856 14.9871C89.7856 12.7663 91.6009 10.8896 94.0891 10.8896C96.5773 10.8896 98.3927 12.7274 98.3927 14.9871C98.3927 17.2468 96.5372 19.0845 94.0891 19.0845ZM79.5608 11.9612H88.9982L79.1657 25.2862L88.9982 38.7639H79.5608L71.661 27.1239V38.7639H63.4463V11.9612H71.661V23.6011L79.5608 11.9612Z" fill="#11032F"/>
<path fill-rule="evenodd" clip-rule="evenodd" d="M0 39.5354C0 41.0987 0.94992 42.5115 2.41493 43.1271L21.9083 51.3189C22.9108 51.7402 24.0455 51.7399 25.0478 51.3182L45.3932 42.7583C46.8574 42.1423 47.8066 40.7299 47.8066 39.1672C47.8066 34.6688 47.8059 30.1704 47.8053 25.672C47.8046 21.1736 47.8039 16.6753 47.8039 12.1769C47.8039 10.6031 46.8414 9.18292 45.3618 8.57386L25.2741 0.304482C24.2708 -0.108515 23.139 -0.10109 22.1415 0.325034L2.39309 8.76124C0.939776 9.38207 0 10.7889 0 12.3437V39.5354ZM9.74252 29.6198V35.2388L23.6982 41.0166L38.1065 34.9616V28.0428L18.2652 20.1234C18.0297 20.029 17.8781 19.808 17.8802 19.5569C17.8822 19.3058 18.0379 19.0868 18.2755 18.9964L19.4163 18.5645C20.8982 18.0048 22.5061 17.3787 23.4583 17.008L23.6193 16.9453L24.0269 16.7866L30.866 19.4605V21.5116H38.1045V15.8986L23.6982 10.0586L9.74252 16.0131V22.9219L29.6637 31.0843C29.8931 31.1787 30.0426 31.3997 30.0426 31.6448C30.0426 31.8899 29.8931 32.1089 29.6616 32.2033L28.5843 32.6413C27.2898 33.1676 25.4709 33.8768 24.1601 34.2786L23.7832 34.3931L23.4165 34.2484C22.6587 33.9491 21.866 33.6437 21.1655 33.3765L20.9361 33.2881C19.9059 32.8944 18.7404 32.4464 17.5955 31.9803L16.9175 31.7031V29.6198H9.74252Z" fill="#11032F"/>
</svg>
