<svg width="223px" height="40px" viewBox="0 0 223 40" version="1.1" xmlns="http://www.w3.org/2000/svg" xmlns:xlink="http://www.w3.org/1999/xlink">
 <!-- Generator: Sketch 62 (91390) - https://sketch.com -->
 <title>
  Group 28
 </title>
 <desc>
  Created with Sketch.
 </desc>
 <defs>
  <polygon id="path-1" points="0.0806189655 0.0642264803 18.79955 0.0642264803 18.79955 8 0.0806189655 8">
  </polygon>
  <polygon id="path-3" points="0.258239603 0.269764444 35.8018378 0.269764444 35.8018378 28.7013644 0.258239603 28.7013644">
  </polygon>
  <polygon id="path-5" points="0.0260666667 0.117433333 4.79633333 0.117433333 4.79633333 4.88743333 0.0260666667 4.88743333">
  </polygon>
 </defs>
 <g id="Page-1" stroke="none" stroke-width="1" fill="none" fill-rule="evenodd">
  <g id="Acne-Home---D" transform="translate(-160.000000, -5208.000000)">
   <g id="LP-FOOTER" transform="translate(0.000000, 5098.000000)">
    <g id="Group-28" transform="translate(160.000000, 110.000000)">
     <g id="Group-3" transform="translate(149.000000, 32.000000)">
      <mask id="mask-2" fill="white">
       <use href="#path-1">
       </use>
      </mask>
      <g id="Clip-2">
      </g>
      <path d="M18.79955,0.442912 C18.79955,0.137952 18.4418259,-0.046688 18.1922052,0.137952 C17.5737224,0.594912 16.7282224,0.875552 15.7985328,0.875552 L4.47846379,0.875552 C2.05006724,0.875552 0.0806189655,2.798112 0.0806189655,5.170912 L0.0806189655,7.621472 C0.0806189655,7.926752 0.439653448,8.110432 0.688291379,7.926752 C1.30677414,7.469792 2.15260172,7.189152 3.08229138,7.189152 L3.08229138,7.188192 L14.4020328,7.188192 C16.8301017,7.188192 18.79955,5.265312 18.79955,2.892192 L18.79955,0.442912 Z" id="Fill-1" fill="#8D8D8F" mask="url(#mask-2)">
      </path>
     </g>
     <path d="M57.9707845,17.7726888 C56.4546043,17.4052373 55.7339388,17.1874399 55.7339388,16.5617616 C55.7339388,16.008791 56.1651226,15.6778564 57.0322881,15.7143733 C58.2957717,15.7867551 60.1366192,16.7795589 60.2821597,16.8525928 C60.6065071,17.0019209 60.9682793,17.0019209 61.2203362,16.5979525 L63.2054448,13.6883361 C63.4587812,13.3208846 63.2793346,12.9172422 62.8094467,12.6586893 C61.0751156,11.6296946 59.5586155,10.965217 56.9612772,11.0014078 C52.5541186,11.07705 50.3886038,13.6153023 50.4241093,16.3035348 C50.4608943,18.8059222 52.3020617,21.1589814 55.4802825,21.9701788 C57.7913379,22.5955311 58.2599463,22.854084 58.2599463,23.4419413 C58.2599463,24.0307767 57.8271632,24.3258464 56.9612772,24.2893295 C55.6229442,24.2140134 53.2037731,22.9267918 52.9539552,22.779746 C52.4831077,22.5593403 52.1939459,22.631722 51.8692786,23.1468715 L50.0636167,25.9078117 C49.9212748,26.1660386 50.0281112,26.6061979 50.2814476,26.7917169 C51.1841186,27.526294 53.9992879,29.0355515 56.8886668,28.9993606 C61.2203362,28.9628437 64,26.4969732 64,23.5521441 C64,20.3516966 61.2203362,18.5835602 57.9707845,17.7726888" id="Fill-4" fill="#746CAF">
     </path>
     <path d="M73.9706282,17.7737726 C72.4543301,17.4066414 71.7337607,17.1872104 71.7337607,16.5615223 C71.7337607,16.0088693 72.164887,15.6776035 73.031937,15.7141209 C74.2952522,15.7868299 76.1361744,16.7809533 76.282655,16.8536623 C76.607279,17.0016885 76.9674038,17.0016885 77.2207065,16.5980398 L79.2042713,13.6893566 C79.457574,13.3222254 79.2781513,12.9169464 78.8086458,12.6600198 C77.0742259,11.6293789 75.5582476,10.965217 72.9609355,11.0014085 C68.5559632,11.07803 66.390417,13.6166476 66.4259178,16.3032915 C66.4614185,18.8057177 68.3023407,21.1588134 71.4801381,21.9700234 C73.7899261,22.5953854 74.2594316,22.8539423 74.2594316,23.4431128 C74.2594316,24.0322834 73.8279855,24.3270317 72.9609355,24.28921 C71.6240601,24.2138927 69.2052113,22.9266512 68.9519086,22.7809073 C68.4846418,22.559194 68.1955186,22.6315768 67.8712143,23.1483645 L66.0654731,25.9090215 C65.9189925,26.1659482 66.0299724,26.6074185 66.2823156,26.7916362 C67.1848664,27.5275289 69.9996606,29.0368097 72.8867357,28.9993141 C77.2207065,28.9627966 80,26.497214 80,23.5520132 C80,20.35119 77.2207065,18.5836783 73.9706282,17.7737726" id="Fill-6" fill="#746CAF">
     </path>
     <path d="M26.7757101,0 C26.4339863,0 26.179229,0.171193714 25.9351406,0.426399158 L15.3313556,11.0873292 C15.3313556,11.0873292 15.0953496,11.3577518 14.7604149,11.4956579 C14.5929476,11.5647694 14.4064058,11.5647694 14.2392618,11.4956579 C13.9043272,11.3577518 13.6683211,11.0873292 13.6683211,11.0873292 L3.06453614,0.426399158 C2.82044767,0.171193714 2.56569043,0 2.22428988,0 C1.33587251,0 1.17293134,0.87657522 1.17293134,1.08834818 L0.000660104698,27.338051 C-0.0155046945,27.6950216 0.267379291,28 0.611366217,28 L6.14748663,28 C6.48112809,28 6.75560638,27.7226028 6.75980922,27.3798983 L7.20240142,15.29172 C7.21856622,14.7030038 7.832182,14.4649177 8.29805151,14.9147768 L13.2719602,19.8166235 C13.6178869,20.1393553 13.9900006,20.4050226 14.4807639,20.4050226 L14.4988685,20.4050226 L14.5008082,20.4050226 L14.5189128,20.4050226 C15.0096761,20.4050226 15.3821131,20.1393553 15.7273932,19.8166235 L20.7019485,14.9147768 C21.1674947,14.4649177 21.7811105,14.7030038 21.7972753,15.29172 L22.2401908,27.3798983 C22.243747,27.7226028 22.5188719,28 22.8521901,28 L28.3883105,28 C28.7326207,28 29.0155047,27.6950216 28.9993399,27.338051 L27.8267454,1.08834818 C27.8267454,0.87657522 27.6638042,0 26.7757101,0" id="Fill-8" fill="#746CAF">
     </path>
     <path d="M125.713523,18.0882312 C125.854163,16.8826274 127.049282,15.7982375 128.71866,15.7590309 C130.95413,15.639124 132.019848,17.0254049 131.558754,18.0882312 C129.967402,18.2444042 127.37969,18.2444042 125.713523,18.0882312 M134.280042,21.8458595 C135.981209,21.6230352 136.962799,20.5513874 136.998762,18.8936006 C137.070045,14.9474538 134.061376,11 128.625221,11 C123.624794,11 119.9643,15.1683177 120.000263,20.0011878 C120.035904,25.2349456 123.951027,28.9625155 128.986775,28.9991084 C132.177185,29.0353745 134.677238,27.9647069 136.199554,25.9024384 C136.454183,25.5329159 136.307121,25.2349456 136.092308,24.9059366 L135.112002,23.3543344 C134.896225,23.0227117 134.495819,23.0589779 134.025734,23.2448826 C132.900614,23.7264707 130.967616,24.2694824 129.011821,24.0473115 C127.344048,23.8653275 125.918382,23.1922804 125.616231,21.8821257 C127.826334,22.1408894 131.271052,22.1774822 134.280042,21.8458595" id="Fill-10" fill="#746CAF">
     </path>
     <path d="M109.991784,35.4840898 C108.190501,35.4840898 106.509544,35.2863722 106.363833,33.7212432 C106.252077,32.503993 106.8669,31.4952095 108.582801,31.4952095 C109.488717,31.4952095 111.455822,31.7440667 112.67393,32.1987847 C113.479959,32.4981299 113.620395,33.1619661 113.642813,33.4727118 C113.745997,34.9303501 112.250642,35.4840898 109.991784,35.4840898 M109.865523,16.5035212 C111.289012,16.5035212 112.383826,17.5263111 112.383826,18.7445384 C112.383826,19.9943615 111.289012,20.9858813 109.865523,20.9858813 C108.481264,20.9858813 107.313924,19.9943615 107.313924,18.7445384 C107.313924,17.5263111 108.481264,16.5035212 109.865523,16.5035212 M117.021209,28.7936112 C114.270493,27.4952545 109.984532,27.4685447 107.193267,27.1174085 C105.590771,26.8662713 104.675624,26.4109018 104.887927,25.7587919 C105.031661,25.3206861 105.4833,24.9737844 106.708991,25.2682436 C107.60271,25.4887623 108.609504,25.7102582 109.796623,25.7464142 C114.449171,25.929474 118.022068,23.9415484 118.097232,19.163752 C118.133825,17.7295661 117.762293,16.5162247 117.277028,15.6331727 C117.762293,15.4875717 118.654694,15.3413193 118.691616,14.8993047 L118.915787,12.1048736 C118.95271,11.6638362 118.581508,11.3697027 118.170747,11.3697027 C115.118388,11.5162808 114.150825,11.3697027 112.441188,11.2218216 C110.877921,11.0765464 110.355733,11 109.61333,11 C104.92452,11 101.31404,14.6771574 101.387556,18.9797149 C101.439642,20.7441902 102.205122,22.2050859 103.039172,23.1151734 C101.601178,23.1151734 100,24.0920354 100,25.941526 C100,28.5046894 102.101608,29.714122 104.27706,30.1284496 C102.881263,30.4603677 100.942839,31.1779493 100.681745,33.4196179 C100.198787,37.6492121 104.17882,40 109.351907,40 C115.081136,40 120.186312,37.900675 119.994777,33.3834619 C119.914669,31.4831576 119.06974,29.7629814 117.021209,28.7936112" id="Fill-12" fill="#746CAF">
     </path>
     <path d="M38.3622411,24.5931949 C37.2034734,24.4094544 37.0724298,23.1512386 37.8187118,22.5905862 C38.6709709,21.9525352 40.3431248,21.584729 42.1393418,21.4998506 L42.2275503,23.3096131 C41.3587918,24.087502 39.774529,24.854334 38.3622411,24.5931949 M47.6622092,17.2481283 C47.8414819,13.2464881 44.690725,11.0799764 40.5712612,11.0048542 C37.9208814,10.932984 35.3066733,11.6685964 33.5520223,12.5863232 C33.2306006,12.7664864 33.0852787,13.1346178 33.1947461,13.5407981 L34.0901576,16.6227602 C34.1977212,17.0256885 34.6248026,17.1746321 35.0912288,16.9908916 C37.2053772,16.0731648 39.1986354,15.9242212 40.5065327,16.1190186 C41.6621275,16.2920274 42.0082982,16.9593468 42.015596,17.4504054 C34.3487544,18.7063448 31.1529414,20.8065148 32.1901846,25.3213275 C33.0151561,28.8836165 37.0613244,29.1392272 39.282719,28.9571127 C41.1093965,28.8081691 41.9689534,28.1112561 42.7548975,27.5613355 C42.936074,28.1480042 43.4025002,28.6998761 44.0466126,28.6998761 L47.3769594,28.6998761 C47.8414819,28.6998761 48.0569264,28.2601997 47.9871211,27.7821492 C47.5184738,24.0377458 47.4826192,20.9925318 47.6622092,17.2481283" id="Fill-14" fill="#746CAF">
     </path>
     <path d="M88.3625171,24.5931949 C87.2034395,24.4094544 87.0723967,23.1512386 87.8186739,22.5905862 C88.6712449,21.9525352 90.3433881,21.584729 92.1392763,21.4998506 L92.2274842,23.3096131 C91.3587312,24.087502 89.7744787,24.854334 88.3625171,24.5931949 M97.6624256,17.2481283 C97.8416971,13.2464881 94.6909605,11.0799764 90.5712057,11.0048542 C87.9211601,10.932984 85.3069689,11.6685964 83.5520117,12.5863232 C83.2309095,12.7664864 83.0855885,13.1346178 83.1950552,13.5407981 L84.0901436,16.6227602 C84.1980238,17.0256885 84.6251025,17.1746321 85.0915258,16.9908916 C87.2053432,16.0731648 89.1985887,15.9242212 90.5067949,16.1190186 C91.662065,16.2920274 92.0085508,16.9593468 92.0158486,17.4504054 C84.3487388,18.7063448 81.1529463,20.8065148 82.1901828,25.3213275 C83.0154664,28.8836165 87.0616087,29.1392272 89.2829891,28.9571127 C91.1093376,28.8081691 91.968889,28.1112561 92.754828,27.5613355 C92.9360033,28.1480042 93.4027439,28.6998761 94.0468522,28.6998761 L97.3768603,28.6998761 C97.8416971,28.6998761 98.0571402,28.2601997 97.9870181,27.7821492 C97.5186911,24.0377458 97.4828368,20.9925318 97.6624256,17.2481283" id="Fill-16" fill="#746CAF">
     </path>
     <path d="M187.679595,25.7265283 L187.679595,18.3087945 C187.608054,13.8369541 184.093565,10.9280453 180.111654,11.0013542 C178.276613,11.0389993 176.964495,11.7209038 175.682853,12.6273579 C175.579231,12.7006668 175.438074,12.6778816 175.361721,12.5748529 C175.149665,12.2859103 174.981239,11.935877 174.844252,11.5917877 C174.756029,11.3698798 174.545256,11.2262341 174.312026,11.2262341 L170.689424,11.2262341 C170.308621,11.2262341 170,11.544236 170,11.935877 L170,28.1873284 C170,28.6331255 170.289693,29 170.725034,29 L175.325148,29 C175.722634,29 176.047936,28.6334557 176.047936,28.2239828 L176.047936,18.4927271 C177.475868,16.1801958 181.668552,16.4229076 181.668552,20.273604 L181.668552,27.0675521 C181.668552,28.1873284 182.319478,29 183.515143,29 L187.533947,29 C187.895181,29 188.07676,28.5594864 187.969288,28.072742 C187.822356,27.4023952 187.715205,26.7690331 187.679595,25.7265283" id="Fill-18" fill="#746CAF">
     </path>
     <g id="Group-22" transform="translate(187.000000, 11.000000)">
      <mask id="mask-4" fill="white">
       <use xlink:href="#path-3">
       </use>
      </mask>
      <g id="Clip-21">
      </g>
      <path d="M35.1224757,0.269764444 L30.0711243,0.269764444 C29.6316649,0.269764444 29.3754486,0.451497778 29.1925297,0.815286667 L25.7884216,8.30695333 L22.1280973,0.815286667 C21.9448541,0.451497778 21.6889622,0.269764444 21.285827,0.269764444 L12.5634486,0.269764444 C12.1609622,0.269764444 12.0146919,0.560408889 11.831773,0.997342222 L9.34258378,6.77929778 C9.26896216,6.85244222 9.26896216,6.85244222 9.23263784,6.77929778 L6.70712432,0.997342222 C6.52388108,0.560408889 6.37761081,0.269764444 5.9748,0.269764444 L0.850151351,0.269764444 C0.374367568,0.269764444 0.118151351,0.560408889 0.337718919,0.997342222 L8.31739459,17.0713978 C8.46366486,17.4351867 8.72052973,17.7261533 9.08604324,17.7261533 L9.48885405,17.7261533 C9.81836757,17.7261533 10.1475568,17.3984533 10.2941514,17.0713978 L16.9522054,3.59799778 L22.7135027,14.45302 L15.1651784,27.4862644 C14.7360973,28.1954756 14.4351243,28.7013644 15.3289622,28.7013644 L20.2236649,28.7013644 C21.0202054,28.7013644 21.1265838,28.3337089 21.3344757,27.9657311 L35.7082054,1.14266444 C35.9644216,0.633553333 35.6715568,0.269764444 35.1224757,0.269764444" id="Fill-20" fill="#746CAF" mask="url(#mask-4)">
      </path>
     </g>
     <path d="M166.072295,1 L150.658529,1 C149.742479,1 149,1.76565544 149,2.71022358 L149,27.3251693 C149,28.2726598 149.745314,29 150.664199,29 L166.072295,29 C166.584817,29 167,28.6431487 167,28.114853 L167,23.7371741 C167,23.2088784 166.584817,22.7520178 166.072295,22.7520178 L156.358324,22.7520178 C155.979052,22.7520178 155.671917,22.4347806 155.671917,22.0451341 L155.671917,19.0860933 C155.671917,18.5574729 156.08773,18.1295111 156.600252,18.1295111 L163.044416,18.1295111 C163.556938,18.1295111 163.972437,17.7012246 163.972437,17.1729288 L163.972437,12.7955747 C163.972437,12.2669543 163.556938,11.8386678 163.044416,11.8386678 L156.600252,11.8386678 C156.08773,11.8386678 155.671917,11.4103813 155.671917,10.8824102 L155.671917,8.00681881 C155.671917,7.61684757 155.979052,7.29928565 156.358324,7.29928565 L166.072295,7.29993506 C166.584817,7.29993506 167,6.86255682 167,6.33426106 L167,1.95658224 C167,1.42828648 166.584817,1 166.072295,1" id="Fill-23" fill="#746CAF">
     </path>
     <g id="Group-27" transform="translate(218.000000, 24.000000)">
      <mask id="mask-6" fill="white">
       <use xlink:href="#path-5">
       </use>
      </mask>
      <g id="Clip-26">
      </g>
      <path d="M2.02973333,2.34743333 L2.5494,2.34743333 C2.93506667,2.34743333 2.95206667,1.76043333 2.5494,1.76043333 L2.02973333,1.76043333 L2.02973333,2.34743333 Z M3.4044,3.6131 C3.42973333,3.6551 3.41273333,3.6801 3.36273333,3.6801 L2.9604,3.6801 C2.9354,3.6801 2.91006667,3.6721 2.90173333,3.6551 L2.40706667,2.77476667 L2.03006667,2.77476667 L2.03006667,3.6301 C2.03006667,3.6551 1.9964,3.6801 1.97106667,3.6801 L1.6194,3.6801 C1.58573333,3.6801 1.5604,3.6551 1.5604,3.6301 L1.5604,1.36643333 C1.5604,1.33276667 1.58573333,1.2991 1.6194,1.2991 L1.97106667,1.2991 L2.60006667,1.2991 C3.05273333,1.2991 3.36306667,1.67676667 3.36306667,2.02876667 C3.36306667,2.33043333 3.17806667,2.61576667 2.88473333,2.7331 L3.4044,3.6131 Z M4.24306667,2.4981 C4.24306667,1.48376667 3.42173333,0.670433333 2.4154,0.670433333 C1.40106667,0.670433333 0.588066667,1.48376667 0.588066667,2.4981 C0.588066667,3.50443333 1.40106667,4.3261 2.4154,4.3261 C3.42173333,4.3261 4.24306667,3.50443333 4.24306667,2.4981 L4.24306667,2.4981 Z M4.7964,2.4981 C4.7964,3.82276667 3.74006667,4.88743333 2.4154,4.88743333 C1.09106667,4.88743333 0.0260666667,3.82276667 0.0260666667,2.4981 C0.0260666667,1.1821 1.09106667,0.117433333 2.4154,0.117433333 C3.74006667,0.117433333 4.7964,1.1821 4.7964,2.4981 L4.7964,2.4981 Z" id="Fill-25" fill="#746CAF" mask="url(#mask-6)">
      </path>
     </g>
    </g>
   </g>
  </g>
 </g>
</svg>