<svg width="249" height="48" viewBox="0 0 249 48" fill="none" xmlns="http://www.w3.org/2000/svg">
<path d="M31.1536 15.2987L16.186 8.32884C16.186 8.32884 15.9249 8.24117 15.7944 8.24117C15.6638 8.24117 15.5333 8.24117 15.4028 8.32884L8.04946 11.7919L7.78841 11.9234V9.68775C7.78841 9.20556 7.3968 8.81103 6.87467 8.81103H0.91372C0.435103 8.81103 0 9.20556 0 9.68775V34.0165C0 34.4987 0.391592 34.8933 0.91372 34.8933H6.87467C7.35329 34.8933 7.78841 34.4987 7.78841 34.0165V20.4713H7.87543L15.7073 16.7453H15.8379L23.7133 20.4275H23.8003V34.0165C23.8003 34.4987 24.1919 34.8933 24.7141 34.8933H30.675C31.1536 34.8933 31.5887 34.4987 31.5887 34.0165V16.1316C31.5887 15.7809 31.3712 15.4741 31.0666 15.2987" fill="white"/>
<path d="M68.3554 12.1862H62.2204C61.7418 12.1862 61.3067 12.5807 61.3067 13.0629V33.9287C61.3067 34.4109 61.6983 34.8492 62.2204 34.8492H68.3554C68.834 34.8492 69.2691 34.4547 69.2691 33.9287V13.0629C69.2691 12.5807 68.8776 12.1862 68.3554 12.1862Z" fill="white"/>
<path d="M65.2655 0C62.6548 0 60.6969 1.97259 60.6969 4.5589C60.6969 7.1452 62.6548 9.11781 65.2655 9.11781C67.8761 9.11781 69.8341 7.1452 69.8341 4.5589C69.8341 1.97259 67.8761 0 65.2655 0Z" fill="white"/>
<path d="M114.476 11.6164C111.909 11.6164 110.038 12.4054 108.733 13.9835L108.428 14.378V2.67388C108.428 2.19169 108.037 1.79718 107.515 1.79718H101.38C100.858 1.79718 100.466 2.19169 100.466 2.67388V34.0164C100.466 34.4986 100.858 34.8931 101.38 34.8931H107.515C107.993 34.8931 108.428 34.4986 108.428 34.0164V22.7506C108.428 19.3753 110.56 18.9808 111.518 18.9808C114.215 18.9808 114.607 21.3041 114.607 22.7068V34.0164C114.607 34.4986 114.998 34.8931 115.521 34.8931H121.656C122.178 34.8931 122.569 34.4986 122.569 34.0164V20.1205C122.569 17.6657 121.786 15.5616 120.35 14.0273C118.871 12.4931 116.826 11.6602 114.476 11.6602" fill="white"/>
<path d="M142.628 23.5397C142.628 26.2575 140.844 28.1424 138.32 28.1424C135.796 28.1424 134.012 26.2575 134.012 23.5397C134.012 20.8219 135.796 18.9369 138.32 18.9369C140.844 18.9369 142.628 20.8219 142.628 23.5397ZM140.452 11.6164C138.059 11.6164 136.144 12.3616 134.622 13.852L134.317 14.1588V2.71773C134.317 2.23553 133.925 1.79718 133.403 1.79718H127.268C126.746 1.79718 126.355 2.1917 126.355 2.71773V33.9726C126.355 34.4548 126.746 34.8493 127.268 34.8493H133.055C133.577 34.8493 133.969 34.4548 133.969 33.9726V32.5698L134.274 32.9205C135.84 34.6301 137.841 35.5068 140.452 35.5068C146.369 35.5068 150.808 30.378 150.808 23.5397C150.808 16.7013 146.326 11.6164 140.409 11.6164" fill="white"/>
<path d="M170.256 23.5398C170.256 26.2576 168.472 28.1426 165.948 28.1426C163.425 28.1426 161.641 26.2576 161.641 23.5398C161.641 20.822 163.425 18.9371 165.948 18.9371C168.472 18.9371 170.256 20.822 170.256 23.5398ZM165.948 11.6165C158.725 11.6165 153.504 16.6576 153.504 23.5398C153.504 30.422 158.725 35.4631 165.948 35.4631C173.171 35.4631 178.392 30.422 178.392 23.5398C178.392 16.6576 173.171 11.6165 165.948 11.6165Z" fill="white"/>
<path d="M84.7147 28.1864C82.191 28.1864 80.4071 26.3015 80.4071 23.5837C80.4071 20.8659 82.191 18.9809 84.7147 18.9809C87.2383 18.9809 89.0222 20.8659 89.0222 23.5837C89.0222 26.3015 87.2383 28.1864 84.7147 28.1864ZM96.6801 32.4385V13.1508C96.6801 12.6686 96.2885 12.2302 95.7664 12.2302H89.9359C89.4138 12.2302 89.0222 12.6248 89.0222 13.1508V14.5974L88.7176 14.2028C87.2383 12.4494 85.2803 11.6165 82.6696 11.6165C79.7109 11.6165 77.1003 12.7563 75.1858 14.9481C73.3148 17.0522 72.3141 19.9015 72.3141 22.97C72.3141 26.0385 73.3584 28.8878 75.1858 30.9919C77.1003 33.1837 79.7109 34.3234 82.6696 34.3234C85.1933 34.3234 87.1077 33.5344 88.5871 31.8686L88.8917 31.5179V33.4467V34.9809C88.8917 37.9179 86.4986 40.2851 83.5398 40.2851C81.7994 40.2851 80.1895 39.4522 79.1888 38.0494C79.0147 37.7864 78.7537 37.6549 78.4491 37.6549C78.3186 37.6549 78.1881 37.6549 78.0575 37.7426L72.6187 40.2851C72.4011 40.3727 72.2271 40.5919 72.1401 40.8549C72.0531 41.1179 72.1401 41.3371 72.2271 41.5563C74.5767 45.5015 78.9277 47.9563 83.5398 47.9563C90.7626 47.9563 96.6366 42.1262 96.6366 34.9371V32.3946L96.6801 32.4385Z" fill="white"/>
<path d="M196.059 11.7042C195.71 11.6604 195.319 11.6165 195.014 11.6165C192.186 11.6165 190.272 12.5371 189.01 14.4659L188.662 14.9919V13.1508C188.662 12.6686 188.27 12.2302 187.748 12.2302H181.961C181.439 12.2302 181.047 12.6248 181.047 13.1508V34.0166C181.047 34.4987 181.439 34.9371 181.961 34.9371H188.14C188.662 34.9371 189.053 34.5426 189.053 34.0166V22.7508C189.053 20.296 190.272 19.2439 192.969 19.2439C193.709 19.2439 194.536 19.3316 195.449 19.5069C195.493 19.5069 195.58 19.5069 195.623 19.5069C195.841 19.5069 196.015 19.4631 196.189 19.3316C196.407 19.1563 196.537 18.9371 196.537 18.6741L196.885 12.6686C196.885 12.1864 196.581 11.7919 196.102 11.7042" fill="white"/>
<path d="M208.068 1.84108H201.933C201.411 1.84108 201.019 2.2356 201.019 2.7178V33.9726C201.019 34.4548 201.411 34.8493 201.933 34.8493H208.068C208.547 34.8493 208.982 34.4548 208.982 33.9726V2.7178C208.982 2.2356 208.59 1.84108 208.068 1.84108Z" fill="white"/>
<path d="M231.128 21.8301C231.128 24.7671 229.257 27.0904 226.386 27.0904C223.514 27.0904 221.338 24.7233 221.338 21.7863V13.1945C221.338 12.7123 220.947 12.274 220.425 12.274H214.464C213.985 12.274 213.55 12.6685 213.55 13.1945V21.7863C213.55 28.9753 219.424 34.8055 226.647 34.8055C228.083 34.8055 229.475 34.5863 230.867 34.1041L231.128 34.0164V34.5425C231.128 37.6986 228.518 40.3288 225.298 40.3288C223.383 40.3288 221.599 39.4082 220.512 37.8301C220.338 37.5671 220.033 37.4356 219.772 37.4356C219.641 37.4356 219.511 37.4356 219.38 37.5233L213.985 40.0658C213.768 40.1534 213.593 40.3726 213.506 40.6356C213.419 40.8548 213.463 41.1178 213.593 41.337C216.03 45.4576 220.512 48 225.298 48C228.822 48 232.173 46.6411 234.74 44.1863C237.263 41.7315 238.743 38.4877 238.873 34.9808V34.6301V13.1507C238.873 12.6685 238.482 12.2301 237.959 12.2301H231.998C231.52 12.2301 231.085 12.6247 231.085 13.1507" fill="white"/>
<path d="M50.8629 21.2164H42.4218V21.041C42.6394 18.8931 44.4668 17.2712 46.6423 17.2712C48.8179 17.2712 50.6453 18.8931 50.8194 21.041V21.2164H50.8629ZM46.5988 11.5725C43.118 11.5725 40.1592 12.7561 38.0272 14.9479C35.8952 17.1397 34.7639 20.1643 34.7639 23.715C34.7639 27.2657 35.9387 30.115 38.1143 32.2191C40.3333 34.3232 43.379 35.463 46.9469 35.463C50.7323 35.463 53.9956 34.4109 56.3887 32.3945C56.6063 32.2191 56.6933 31.9561 56.6933 31.6931C56.6933 31.4301 56.5628 31.1671 56.3452 30.9917L52.2987 27.6164C52.2987 27.6164 51.9071 27.3972 51.6896 27.3972C51.5155 27.3972 51.298 27.441 51.1675 27.5725C49.9927 28.4493 48.6438 28.9314 47.3385 28.9314C45.0324 28.9314 43.5966 27.9671 42.9874 25.9945L42.9004 25.7753H57.3024C57.7811 25.7753 58.1726 25.4246 58.2162 24.9424C58.2162 24.6356 58.2597 24.0218 58.2597 23.4958C58.2597 20.0328 57.1284 17.052 54.9964 14.8602C52.8644 12.6684 49.9491 11.5287 46.5988 11.5287" fill="white"/>
<path d="M248.228 14.4218C248.228 16.0438 246.967 17.315 245.313 17.315C243.66 17.315 242.354 16.0438 242.354 14.4218C242.354 12.7999 243.66 11.5287 245.313 11.5287C246.967 11.5287 248.228 12.7999 248.228 14.4218ZM243.094 14.4218C243.094 15.6931 244.051 16.7013 245.313 16.7013C246.575 16.7013 247.489 15.6931 247.489 14.4218C247.489 13.1506 246.575 12.0986 245.313 12.0986C244.051 12.0986 243.094 13.1506 243.094 14.378V14.4218ZM244.835 15.9123H244.182V13.0191C244.443 12.9753 244.791 12.9314 245.27 12.9314C245.792 12.9314 246.053 13.0191 246.27 13.1506C246.444 13.2821 246.532 13.5013 246.532 13.7643C246.532 14.0712 246.27 14.3342 245.922 14.4218C246.183 14.5533 246.357 14.7725 246.445 15.1671C246.532 15.6054 246.575 15.7808 246.662 15.8684H245.966C245.966 15.8684 245.835 15.5177 245.748 15.1671C245.705 14.8602 245.531 14.7287 245.139 14.7287H244.835V15.8684V15.9123ZM244.835 14.2903H245.139C245.487 14.2903 245.792 14.1588 245.792 13.852C245.792 13.589 245.618 13.4136 245.183 13.4136C245.009 13.4136 244.878 13.4136 244.835 13.4136V14.2465V14.2903Z" fill="white"/>
</svg>
