<svg xmlns="http://www.w3.org/2000/svg" width="241" height="76" viewBox="0 0 241 76">
  <defs>
    <style>
      .cls-1 {
        fill: #00143c;
      }

      .cls-1, .cls-2, .cls-3 {
        fill-rule: evenodd;
      }

      .cls-2 {
        fill: #b0c3ff;
      }

      .cls-3 {
        fill: #3768d0;
      }
    </style>
  </defs>
  <path class="cls-1" d="M211.381,34.18h-3.305V30.821h3.305V24.709h4.054v6.112h6.94V34.18h-6.94V45.657c0,2.473.931,3.733,3.355,3.733a11.673,11.673,0,0,0,3.3-.561l0.512,3.593a13.683,13.683,0,0,1-4.654.747c-4.566,0-6.571-2.986-6.571-7.046M227.774,34.18h-3.306V30.821h3.306V24.709h4.052v6.112h6.94V34.18h-6.94V45.657c0,2.473.932,3.733,3.355,3.733a11.68,11.68,0,0,0,3.3-.561L239,52.421a13.7,13.7,0,0,1-4.661.747c-4.561,0-6.564-2.986-6.564-7.046V34.18Zm-42.7,7.7c0-7.277,4.236-11.615,10.8-11.615,6.521,0,9.782,4.012,9.782,10.03,0,0.653-.05,1.632-0.144,2.611H189.124c0.324,4.433,2.655,6.859,6.846,6.859,3.91,0,5.265-1.96,5.959-4.386l3.542,0.98c-1.068,4.151-3.866,6.765-9.5,6.765-6.753,0-10.9-4.012-10.9-11.244m4.1-1.912h12.712c-0.187-4.152-2.1-6.485-6.1-6.485-3.816,0-6.146,2.146-6.609,6.485m-17.6,20.528c-8.2.046-10.618-1.774-10.618-4.666,0-1.912,1.864-3.265,4.891-3.919V51.676c-1.631-.328-2.7-1.214-2.7-2.753,0-1.121.931-2.1,2.236-2.8l1.629-1.026a6.653,6.653,0,0,1-4.8-6.671c0-4.945,3.493-7.6,9.408-7.6h10.57V34.04H179.58c-1.164,0-2.561-.093-4.517-0.28V34.18c2.981,0.607,5.448,1.866,5.448,5.039,0,4.059-3.166,6.484-9.22,6.484a12.6,12.6,0,0,1-3.679-.465l-0.606.979a3.1,3.1,0,0,0-.652,1.494c0,0.932.791,1.305,2.281,1.305,2.423,0,5.03-.046,7.406-0.046,4.423,0,6.706,1.912,6.706,5.226,0,4.291-2.748,6.344-11.178,6.3m7.825-6.159c0-1.4-.978-2.472-3.4-2.472H168.17c-2.7,0-3.959,1.446-3.959,2.8,0,1.958,1.584,2.8,7.5,2.8,6.241,0,7.684-1.072,7.684-3.125m-13.46-15.909c0,2.707,1.491,4.339,5.449,4.339,3.913,0,5.589-1.586,5.589-4.339,0-2.706-1.909-4.385-5.681-4.385s-5.357,1.773-5.357,4.385m-12.479,8.351h-0.279c-1.071,3.732-3.772,6.392-7.869,6.392-5.31,0-8.337-4.013-8.337-11.383,0-7.419,3.12-11.523,8.429-11.523,4.284,0,6.706,2.611,7.777,6.343h0.279V22.657h4.053V52.608h-4.053V46.776Zm0-4.151V40.945c0-4.152-2.468-7-6.38-7-4.1,0-6.1,2.519-6.1,7.838,0,5.225,1.956,7.744,6.1,7.744,3.866,0,6.38-2.659,6.38-6.9m-24.494,4.8h-0.42a7.564,7.564,0,0,1-7.73,5.645c-4.1,0-6.753-1.866-6.753-6.064,0-3.779,2.422-6.532,7.731-6.532h6.986V38.706c0-3.267-1.258-5.039-4.8-5.039-2.934,0-4.565,1.446-5.264,4.339l-3.818-.934c0.884-4.2,4-6.765,9.222-6.765,6.053,0,8.708,2.94,8.708,8.352V52.608h-3.866V47.429Zm-0.186-2.938V43.278H122.4c-2.842,0-4.471,1.12-4.471,3.264,0,1.727,1.072,3.268,4.285,3.268,4,0,6.566-2.24,6.566-5.319m-33.25-1.866v9.983H91.24V24.617h10.9c6.567,0,9.874,3.032,9.874,9,0,5.226-3.446,9-9.781,9H95.525Zm0-14.323v10.73h6.24c4.238,0,6.008-1.679,6.008-5.365,0-3.733-1.537-5.365-6.054-5.365H95.525ZM25.87,62L13.93,50.042,25.873,38.076,13.945,26.127l11.941-11.96L49.778,38.084Zm55.711-60h1m-1,71.808h1"/>
  <path id="Shape_1_copy" data-name="Shape 1 copy" class="cls-2" d="M73.683,38.092L49.787,14.17,37.845,26.131,49.779,38.084,37.829,50.054,49.771,62.017Zm7.9-36.086h1m-1,71.808h1"/>
  <path id="Shape_1_copy_2" data-name="Shape 1 copy 2" class="cls-3" d="M25.886,14.167L37.842,2.189,49.787,14.17,37.845,26.131ZM25.871,62L37.842,74,49.771,62.017,37.829,50.054Zm0-23.927L13.93,50.042,2,38.093,13.946,26.128Z"/>
</svg>
