<svg xmlns="http://www.w3.org/2000/svg" width="162.018" height="38.414" viewBox="0 0 162.018 38.414">
  <g id="Group_26" data-name="Group 26" transform="translate(-81.352 -342.939)">
    <g id="Group_4" data-name="Group 4" transform="translate(127.11 345.284)">
      <g id="Group_2" data-name="Group 2" transform="translate(0 1.493)">
        <g id="Group_1" data-name="Group 1">
          <path id="Path_1" data-name="Path 1" d="M208.072,378.86V353.568h6.3c4.246,0,6.433,1.4,6.433,5.435v5.276c0,3.8-2.821,5.47-5.974,5.47h-1.649v9.111Zm5.105-13.392h.836c1.866,0,1.682-.792,1.682-3.776s.184-3.655-1.682-3.655h-.836Z" transform="translate(-208.072 -353.568)" fill="#c50a1e"/>
          <path id="Path_2" data-name="Path 2" d="M255.272,386.43h-.065c-.482,1.733-1.767,2.359-3.762,2.359-2.284,0-3.442-1.9-3.442-4.745l-.157-15.327h5.083V382.48c0,.867.064,1.8,1.029,1.8s1.094-.936,1.094-1.8V368.717h5.082v19.829h-4.863Z" transform="translate(-233.485 -363.247)" fill="#c50a1e"/>
          <path id="Path_3" data-name="Path 3" d="M292.285,370.029h.1a3.692,3.692,0,0,1,3.589-2.2c2.573,0,3.677,2.056,3.677,4.1v4.58h-5.082v-2.468c0-.8-.225-1.629-1.062-1.629s-1.062.832-1.062,1.629v13.936h-5.083V368.15h4.926Z" transform="translate(-258.729 -362.679)" fill="#c50a1e"/>
          <path id="Path_4" data-name="Path 4" d="M337.6,382.952c0,3.675-2.9,5.269-6.144,5.269s-6.144-1.595-6.144-5.269V373.41c0-3.571,2.188-5.581,6.144-5.581s6.144,2.011,6.144,5.581Zm-7.206-.4c0,.728.257,1.387,1.062,1.387s1.062-.659,1.062-1.387v-9.188c0-.728-.257-1.387-1.062-1.387s-1.062.659-1.062,1.387Z" transform="translate(-282.976 -362.679)" fill="#c50a1e"/>
        </g>
      </g>
      <g id="Group_3" data-name="Group 3" transform="translate(56.807 0)">
        <path id="Path_5" data-name="Path 5" d="M376.057,369.959,376,372.626c0,4.458-2.918,5.862-5.2,5.862-3.338,0-5.411-2.382-5.411-6.4V359.524c0-5.531,2.046-6.9,5.372-6.9,3.252,0,5.294,1.684,5.294,5.812v2.252h-3.294v-1.433c-.033-2.214-.191-3.642-2.148-3.642-1.74,0-1.913,1.95-1.913,4.566v10.966c0,3.44.957,4.192,2.066,4.192,1.37,0,1.942-1.107,1.942-3.252v-2.123Z" transform="translate(-365.391 -351.471)" fill="#1a1818"/>
        <path id="Path_6" data-name="Path 6" d="M404.745,349.434v26.754h-3.257V349.434Z" transform="translate(-388.454 -349.434)" fill="#1a1818"/>
        <path id="Path_7" data-name="Path 7" d="M427.743,380.715a10.471,10.471,0,0,1-.815,4.589,4.98,4.98,0,0,1-4.586,2.415,4.727,4.727,0,0,1-4.527-2.616,8.908,8.908,0,0,1-.718-4.387v-6.44c0-3.1.261-4.226,1.272-5.514a5.2,5.2,0,0,1,4.005-1.691,5.3,5.3,0,0,1,4.227,1.851c.815,1.047,1.141,2.415,1.141,4.589v4.709h-7.5v3.824c0,1.811.972,2.688,2.342,2.688,1.044,0,1.513-.474,1.807-1.722a10.567,10.567,0,0,0,.2-2.294Zm-3.086-5.836V373.47c0-2.5-.671-3.663-2.236-3.663a1.915,1.915,0,0,0-1.782,1.248c-.359.725-.391,1.127-.391,3.824v.677h4.41Z" transform="translate(-398.426 -360.702)" fill="#1a1818"/>
        <path id="Path_8" data-name="Path 8" d="M451.383,374.351V373.3c0-2.214.359-3.381,1.37-4.347a5.9,5.9,0,0,1,3.8-1.167,4.9,4.9,0,0,1,3.868,1.489,5.4,5.4,0,0,1,.913,3.622v12.44a8.261,8.261,0,0,0,.263,2.574h-3.186l-.13-1.61a3.423,3.423,0,0,1-3.222,1.892,4.158,4.158,0,0,1-3.379-1.65,6.46,6.46,0,0,1-.946-4.024c0-3.425,2.71-4.983,4.732-5.949,2.153-1.006,2.656-2.223,2.656-3.672,0-1.65-.46-2.375-1.667-2.375a1.88,1.88,0,0,0-1.983,1.771,10.779,10.779,0,0,0-.13,2.052Zm4.229,5.085a3.311,3.311,0,0,0-1.731,3.262c0,1.522.667,2.384,1.906,2.384,1.37,0,2.393-1.21,2.393-2.923V377.57A31.045,31.045,0,0,1,455.613,379.436Z" transform="translate(-419.915 -361.162)" fill="#1a1818"/>
        <path id="Path_9" data-name="Path 9" d="M490.761,367.737v1.449a4.16,4.16,0,0,1,3.439-1.7,3.665,3.665,0,0,1,3.293,2.283c.456,1.006.489,1.328.489,4.548v13.4h-3.276V374.036a5.558,5.558,0,0,0-.391-2.818,1.726,1.726,0,0,0-1.533-.885c-1.533,0-1.943,1.328-1.943,3.784v13.6h-3.276V367.877Z" transform="translate(-443.448 -360.968)" fill="#1a1818"/>
      </g>
    </g>
    <g id="Group_5" data-name="Group 5" transform="translate(127.11 374.591)">
      <path id="Path_10" data-name="Path 10" d="M209.117,432.678h-1.045v-.866h3.216v.866h-1.045v3.931h-1.127Z" transform="translate(-208.072 -431.372)" fill="#1a1818"/>
      <path id="Path_11" data-name="Path 11" d="M218.335,430.823h1.086v2.1h.014a.907.907,0,0,1,.914-.584c.79,0,1.051.577,1.051,1.292v2.344h-1.086v-2.206c0-.447-.2-.564-.419-.564-.35,0-.474.3-.474.763v2.007h-1.086Z" transform="translate(-214.629 -430.74)" fill="#1a1818"/>
      <path id="Path_12" data-name="Path 12" d="M231.815,437.159H229.7a.8.8,0,0,0,.886.818,2.226,2.226,0,0,0,1.01-.282l.021.818a3.372,3.372,0,0,1-1.134.206,1.855,1.855,0,0,1-.227-3.69c.323,0,1.553,0,1.553,1.869Zm-.99-.591c0-.454-.117-.88-.563-.88-.557,0-.557.687-.557.88Z" transform="translate(-221.235 -433.428)" fill="#1a1818"/>
      <path id="Path_13" data-name="Path 13" d="M244.306,431.812h1.532c1.024,0,1.643.488,1.643,1.526a1.4,1.4,0,0,1-1.505,1.519h-.543v1.752h-1.127Zm1.443,2.206a.6.6,0,0,0,.6-.687c0-.474-.22-.681-.667-.681h-.3v1.367Z" transform="translate(-231.222 -431.372)" fill="#1a1818"/>
      <path id="Path_14" data-name="Path 14" d="M254.334,435.256a4.235,4.235,0,0,1,1.154-.227c1.258,0,1.546.523,1.546,1.319v1.306c0,.529.007.77.027,1.01h-.989l-.027-.495h-.014a1.052,1.052,0,0,1-.983.55,1.034,1.034,0,0,1-1.106-1.086c0-1.2,1.395-1.2,1.773-1.2h.33c0-.687-.509-.687-.667-.687a1.844,1.844,0,0,0-1,.316Zm1.711,1.684c-.433,0-1.113.027-1.113.625a.422.422,0,0,0,.467.468c.1,0,.646-.014.646-.887Z" transform="translate(-237.379 -433.428)" fill="#1a1818"/>
      <path id="Path_15" data-name="Path 15" d="M264.517,435.833a6.921,6.921,0,0,0-.027-.749h.989c.007.213.021.433.028.646h.014c.22-.385.371-.7,1-.7h.159v1a1.441,1.441,0,0,0-.364-.041c-.632,0-.708.55-.708,1.072v1.6h-1.086Z" transform="translate(-244.118 -433.428)" fill="#1a1818"/>
      <path id="Path_16" data-name="Path 16" d="M271.623,435.256a4.236,4.236,0,0,1,1.154-.227c1.258,0,1.546.523,1.546,1.319v1.306c0,.529.007.77.028,1.01h-.99l-.027-.495h-.014a1.052,1.052,0,0,1-.983.55,1.034,1.034,0,0,1-1.106-1.086c0-1.2,1.395-1.2,1.773-1.2h.33c0-.687-.509-.687-.667-.687a1.845,1.845,0,0,0-1,.316Zm1.711,1.684c-.433,0-1.113.027-1.113.625a.422.422,0,0,0,.467.468c.1,0,.646-.014.646-.887Z" transform="translate(-248.425 -433.428)" fill="#1a1818"/>
      <path id="Path_17" data-name="Path 17" d="M285.7,436.459c0-.413-.172-.564-.412-.564-.323,0-.447.234-.447.5v2.268h-1.085v-2.206c0-.454-.2-.564-.378-.564-.357,0-.481.309-.481.763v2.007h-1.086v-2.831a6.931,6.931,0,0,0-.027-.749h.99c.014.158.027.357.027.6h.014a.977.977,0,0,1,1.01-.653.906.906,0,0,1,.928.6.964.964,0,0,1,.983-.6c.79,0,1.052.577,1.052,1.292v2.343H285.7Z" transform="translate(-255.164 -433.428)" fill="#1a1818"/>
      <path id="Path_18" data-name="Path 18" d="M300.629,437.159h-2.11a.8.8,0,0,0,.887.818,2.225,2.225,0,0,0,1.01-.282l.021.818a3.369,3.369,0,0,1-1.134.206,1.855,1.855,0,0,1-.227-3.69c.323,0,1.553,0,1.553,1.869Zm-.989-.591c0-.454-.117-.88-.564-.88-.557,0-.557.687-.557.88Z" transform="translate(-265.201 -433.428)" fill="#1a1818"/>
      <path id="Path_19" data-name="Path 19" d="M310.991,435.173c0,.454.014.639.027.8h-1.031a5.616,5.616,0,0,1-.027-.571h-.014a1.02,1.02,0,0,1-.976.625c-.8,0-1.258-.79-1.258-1.931,0-.962.357-1.759,1.258-1.759a.923.923,0,0,1,.921.584h.014v-2.1h1.086Zm-1.629.075c.447,0,.543-.646.543-1.058,0-.571-.1-1.107-.543-1.107-.481,0-.523.536-.523,1.107C308.84,434.561,308.868,435.249,309.362,435.249Z" transform="translate(-271.733 -430.74)" fill="#1a1818"/>
      <path id="Path_20" data-name="Path 20" d="M318.986,430.823h1.085v.962h-1.085Zm0,1.574h1.085v3.58h-1.085Z" transform="translate(-278.936 -430.74)" fill="#1a1818"/>
      <path id="Path_21" data-name="Path 21" d="M326.458,438.568a3.851,3.851,0,0,1-.983.151,1.657,1.657,0,0,1-1.691-1.807,1.7,1.7,0,0,1,1.773-1.883,2.951,2.951,0,0,1,.866.172l-.055.818a1.772,1.772,0,0,0-.632-.151c-.824,0-.824.907-.824,1.045a.867.867,0,0,0,.88,1,1.786,1.786,0,0,0,.632-.158Z" transform="translate(-282.001 -433.428)" fill="#1a1818"/>
      <path id="Path_22" data-name="Path 22" d="M334.452,435.984a2.237,2.237,0,0,0-.873-.193c-.282,0-.405.138-.405.261,0,.22.158.3.749.516a1,1,0,0,1,.749,1.044c0,.8-.6,1.106-1.319,1.106a3.711,3.711,0,0,1-1.175-.172l.027-.838a1.78,1.78,0,0,0,.893.247c.509,0,.543-.178.543-.337s-.282-.227-.749-.419a1.112,1.112,0,0,1-.749-1.1c0-.385.275-1.072,1.34-1.072a3.307,3.307,0,0,1,1,.144Z" transform="translate(-287.342 -433.428)" fill="#1a1818"/>
      <path id="Path_23" data-name="Path 23" d="M347.136,435.029a1.853,1.853,0,1,1-1.684,1.835A1.634,1.634,0,0,1,347.136,435.029Zm0,2.948c.378,0,.556-.412.556-1.113s-.178-1.093-.556-1.093-.557.392-.557,1.093S346.758,437.977,347.136,437.977Z" transform="translate(-295.845 -433.428)" fill="#1a1818"/>
      <path id="Path_24" data-name="Path 24" d="M355.754,432.251h.625v-.584c0-.571.22-1.072,1.12-1.072a3.1,3.1,0,0,1,.708.083l-.027.756a.745.745,0,0,0-.282-.055c-.323,0-.433.116-.433.487v.385h.653v.763h-.653v2.818h-1.086v-2.818h-.625Z" transform="translate(-302.427 -430.594)" fill="#1a1818"/>
      <path id="Path_25" data-name="Path 25" d="M368.834,431.812h1.532c1.024,0,1.643.488,1.643,1.526a1.4,1.4,0,0,1-1.505,1.519h-.543v1.752h-1.127Zm1.443,2.206a.6.6,0,0,0,.6-.687c0-.474-.22-.681-.667-.681h-.3v1.367Z" transform="translate(-310.784 -431.372)" fill="#1a1818"/>
      <path id="Path_26" data-name="Path 26" d="M379.163,435.833a6.932,6.932,0,0,0-.027-.749h.989c.007.213.021.433.028.646h.014c.22-.385.371-.7,1-.7h.158v1a1.439,1.439,0,0,0-.364-.041c-.632,0-.708.55-.708,1.072v1.6h-1.086Z" transform="translate(-317.366 -433.428)" fill="#1a1818"/>
      <path id="Path_27" data-name="Path 27" d="M387.713,435.029a1.853,1.853,0,1,1-1.684,1.835A1.634,1.634,0,0,1,387.713,435.029Zm0,2.948c.378,0,.556-.412.556-1.113s-.179-1.093-.556-1.093-.557.392-.557,1.093S387.335,437.977,387.713,437.977Z" transform="translate(-321.77 -433.428)" fill="#1a1818"/>
      <path id="Path_28" data-name="Path 28" d="M397.156,435.888c0-.454-.014-.639-.027-.8h1.031a5.6,5.6,0,0,1,.027.57h.014a1.021,1.021,0,0,1,.976-.625c.8,0,1.258.79,1.258,1.931,0,.963-.358,1.76-1.258,1.76a.922.922,0,0,1-.921-.584h-.014v2.014h-1.086Zm1.629-.075c-.447,0-.543.646-.543,1.058,0,.571.1,1.106.543,1.106.481,0,.523-.535.523-1.106C399.308,436.5,399.28,435.813,398.785,435.813Z" transform="translate(-328.862 -433.428)" fill="#1a1818"/>
      <path id="Path_29" data-name="Path 29" d="M411.028,437.159h-2.11a.8.8,0,0,0,.887.818,2.225,2.225,0,0,0,1.01-.282l.021.818a3.37,3.37,0,0,1-1.134.206,1.855,1.855,0,0,1-.227-3.69c.323,0,1.553,0,1.553,1.869Zm-.99-.591c0-.454-.117-.88-.563-.88-.557,0-.557.687-.557.88Z" transform="translate(-335.735 -433.428)" fill="#1a1818"/>
      <path id="Path_30" data-name="Path 30" d="M418.311,435.833a6.923,6.923,0,0,0-.027-.749h.99c.007.213.021.433.027.646h.014c.22-.385.371-.7,1-.7h.159v1a1.439,1.439,0,0,0-.364-.041c-.632,0-.708.55-.708,1.072v1.6h-1.086Z" transform="translate(-342.378 -433.428)" fill="#1a1818"/>
      <path id="Path_31" data-name="Path 31" d="M424.986,433.284h.619v-.736l1.058-.337v1.072h.7v.763h-.7v1.642c0,.351.158.447.364.447a.809.809,0,0,0,.357-.075v.763a2.593,2.593,0,0,1-.756.1.955.955,0,0,1-1.052-1.058v-1.814h-.591Z" transform="translate(-346.66 -431.628)" fill="#1a1818"/>
      <path id="Path_32" data-name="Path 32" d="M434.455,439.092c-.268.838-.646,1.2-1.251,1.2a2.629,2.629,0,0,1-.653-.089l.034-.8a.67.67,0,0,0,.344.083c.364,0,.536-.405.536-.715l-1.244-3.58h1.127l.667,2.425h.014l.632-2.425h1.058Z" transform="translate(-351.282 -433.525)" fill="#1a1818"/>
      <path id="Path_33" data-name="Path 33" d="M448.216,431.812h1.7c1.079,0,2.144.633,2.144,2.44a2.152,2.152,0,0,1-2.289,2.357h-1.56Zm1.127,3.959h.357c.818,0,1.182-.646,1.182-1.519,0-.99-.378-1.6-1.251-1.6h-.289Z" transform="translate(-361.502 -431.372)" fill="#1a1818"/>
      <path id="Path_34" data-name="Path 34" d="M460.7,435.256a4.239,4.239,0,0,1,1.154-.227c1.258,0,1.547.523,1.547,1.319v1.306c0,.529.006.77.027,1.01h-.99l-.027-.495H462.4a1.051,1.051,0,0,1-.983.55,1.034,1.034,0,0,1-1.106-1.086c0-1.2,1.4-1.2,1.773-1.2h.33c0-.687-.508-.687-.667-.687a1.845,1.845,0,0,0-1,.316Zm1.711,1.684c-.433,0-1.113.027-1.113.625a.422.422,0,0,0,.467.468c.1,0,.646-.014.646-.887Z" transform="translate(-369.227 -433.428)" fill="#1a1818"/>
      <path id="Path_35" data-name="Path 35" d="M474.773,436.459c0-.413-.172-.564-.412-.564-.323,0-.447.234-.447.5v2.268h-1.086v-2.206c0-.454-.2-.564-.378-.564-.357,0-.481.309-.481.763v2.007h-1.086v-2.831a6.921,6.921,0,0,0-.027-.749h.989c.014.158.028.357.028.6h.014a.976.976,0,0,1,1.01-.653.9.9,0,0,1,.928.6.964.964,0,0,1,.983-.6c.79,0,1.051.577,1.051,1.292v2.343h-1.086Z" transform="translate(-375.967 -433.428)" fill="#1a1818"/>
      <path id="Path_36" data-name="Path 36" d="M486.8,435.256a4.236,4.236,0,0,1,1.154-.227c1.258,0,1.546.523,1.546,1.319v1.306c0,.529.007.77.028,1.01h-.99l-.027-.495H488.5a1.052,1.052,0,0,1-.983.55,1.034,1.034,0,0,1-1.106-1.086c0-1.2,1.395-1.2,1.773-1.2h.33c0-.687-.509-.687-.667-.687a1.845,1.845,0,0,0-1,.316Zm1.711,1.684c-.433,0-1.113.027-1.113.625a.422.422,0,0,0,.467.468c.1,0,.646-.014.646-.887Z" transform="translate(-385.906 -433.428)" fill="#1a1818"/>
      <path id="Path_37" data-name="Path 37" d="M500.068,438.232a1.684,1.684,0,0,1-1.821,1.958,4.43,4.43,0,0,1-1.292-.213l.034-.887a2.546,2.546,0,0,0,1.127.316c.859,0,.893-.632.893-1.374H499a.975.975,0,0,1-.941.632c-.625,0-1.265-.44-1.265-1.787,0-1.141.454-1.849,1.271-1.849a.983.983,0,0,1,.962.625h.014l.027-.57H500.1c-.014.165-.027.35-.027.8Zm-1.629-.33c.44,0,.543-.529.543-1.031,0-.412-.1-1.058-.536-1.058-.5,0-.529.687-.529,1.058C497.917,437.153,497.958,437.9,498.439,437.9Z" transform="translate(-392.536 -433.428)" fill="#1a1818"/>
      <path id="Path_38" data-name="Path 38" d="M510.86,437.159h-2.11a.8.8,0,0,0,.886.818,2.226,2.226,0,0,0,1.01-.282l.021.818a3.37,3.37,0,0,1-1.134.206,1.855,1.855,0,0,1-.227-3.69c.323,0,1.553,0,1.553,1.869Zm-.99-.591c0-.454-.117-.88-.563-.88-.557,0-.557.687-.557.88Z" transform="translate(-399.519 -433.428)" fill="#1a1818"/>
    </g>
    <g id="Group_6" data-name="Group 6" transform="translate(239.292 347.391)">
      <path id="Path_39" data-name="Path 39" d="M518.746,357.4a2.041,2.041,0,1,1,2.034,2.131A2.035,2.035,0,0,1,518.746,357.4Zm3.646,0a1.611,1.611,0,1,0-3.212,0,1.611,1.611,0,1,0,3.212,0ZM520,356.273h.822c.454,0,.844.184.844.7a.639.639,0,0,1-.4.6l.5.9h-.5l-.379-.757h-.443v.757H520Zm.725,1.093c.293,0,.465-.13.465-.368,0-.216-.119-.357-.444-.357h-.3v.725Z" transform="translate(-518.746 -355.267)" fill="#1a1818"/>
    </g>
    <g id="Group_12" data-name="Group 12" transform="translate(81.352 342.939)">
      <g id="Group_9" data-name="Group 9" transform="translate(13.514 16.923)">
        <g id="Group_7" data-name="Group 7" transform="translate(2.947 6.807)">
          <path id="Path_40" data-name="Path 40" d="M134.625,408.657V410.7l.079.051L136.666,412l-.941-.005h-.172v4.165h-7.5V412h-.172l-.941.005,4.865-3.1,1.482.946.263.168v-1.353h1.079" transform="translate(-126.936 -408.657)" fill="#c50a1e"/>
        </g>
        <g id="Group_8" data-name="Group 8">
          <path id="Path_41" data-name="Path 41" d="M129.332,389.806v5.044H134.4v5.1H133l-2.749-1.754v-2.419H127.5v.664l-.817-.521-.092-.059-.092.059-6.317,4.031h-1.4v-5.1h5.067v-5.044h5.489" transform="translate(-118.776 -389.806)" fill="#1a1818"/>
        </g>
      </g>
      <path id="Path_42" data-name="Path 42" d="M122.247,351.165c1-1.73,2.633-1.73,3.632,0l4.489,7.775H133.3l-9.238-16-9.238,16h2.933Z" transform="translate(-102.738 -342.939)" fill="#1a1818"/>
      <g id="Group_11" data-name="Group 11" transform="translate(0 23.238)">
        <g id="Group_10" data-name="Group 10">
          <path id="Path_43" data-name="Path 43" d="M99.059,418.46H89.383c-2,0-2.814-1.415-1.816-3.145l4.636-8.02H89.265L81.352,421H99.059v-2.54Z" transform="translate(-81.352 -407.295)" fill="#1a1818"/>
          <path id="Path_44" data-name="Path 44" d="M160.228,407.295H157.3l4.626,8.02c1,1.73.182,3.145-1.816,3.145H150.43V421h17.711Z" transform="translate(-125.486 -407.295)" fill="#1a1818"/>
        </g>
      </g>
    </g>
  </g>
</svg>
